<svg width="59" height="19" viewBox="0 0 59 19" fill="none" xmlns="http://www.w3.org/2000/svg">
<g filter="url(#filter0_b)">
<path fill-rule="evenodd" clip-rule="evenodd" d="M49.5098 18C54.1997 17.9947 58 14.1911 58 9.49999C58 4.80557 54.1944 0.999987 49.5 0.999987L1.21245 0.999985C1.09488 1.00126 0.999969 1.09696 0.999969 1.21483C0.999969 1.30918 1.0618 1.39228 1.15146 1.42169C4.5475 2.53566 7 5.73142 7 9.49999C7 13.2686 4.54749 16.4643 1.15145 17.5783C1.0618 17.6077 0.999969 17.6908 0.999969 17.7851C0.999969 17.9038 1.09616 18 1.21481 18L49.5 18C49.5033 18 49.5065 18 49.5098 18Z" fill="white" fill-opacity="0.5"/>
<path d="M49.5098 18L49.5098 17.95L49.5098 17.95L49.5098 18ZM49.5 0.999987L49.5 0.949987L49.5 0.999987ZM1.21245 0.999985L1.21245 0.949982L1.21191 0.949988L1.21245 0.999985ZM1.15146 1.42169L1.13587 1.4692L1.13587 1.4692L1.15146 1.42169ZM1.15145 17.5783L1.16703 17.6258L1.16703 17.6258L1.15145 17.5783ZM1.21481 18L1.21481 17.95H1.21481V18ZM49.5 18L49.5 18.05H49.5V18ZM58.05 9.49999C58.05 9.46588 58.0498 9.43182 58.0494 9.3978L57.9494 9.39897C57.9498 9.4326 57.95 9.46627 57.95 9.49999H58.05ZM58.0446 9.19428C58.0423 9.1264 58.0391 9.05871 58.0351 8.99123L57.9353 8.99709C57.9392 9.06379 57.9423 9.13069 57.9447 9.1978L58.0446 9.19428ZM58.0208 8.78802C58.0152 8.72037 58.0088 8.65294 58.0017 8.58575L57.9023 8.59632C57.9093 8.66273 57.9156 8.72937 57.9211 8.79623L58.0208 8.78802ZM57.9777 8.38334C57.969 8.31607 57.9594 8.24904 57.9491 8.18227L57.8502 8.19756C57.8605 8.26355 57.8699 8.32979 57.8786 8.39628L57.9777 8.38334ZM57.9155 7.98118C57.9035 7.91441 57.8908 7.84791 57.8773 7.78169L57.7793 7.80168C57.7926 7.86712 57.8052 7.93284 57.8171 7.99882L57.9155 7.98118ZM57.8341 7.58244C57.819 7.5163 57.803 7.45045 57.7864 7.3849L57.6895 7.40957C57.7059 7.47434 57.7217 7.53941 57.7366 7.60477L57.8341 7.58244ZM57.7337 7.18805C57.7154 7.1227 57.6964 7.05766 57.6765 6.99295L57.5809 7.02224C57.6005 7.08618 57.6194 7.15045 57.6375 7.21503L57.7337 7.18805ZM57.6146 6.79893C57.5931 6.73452 57.571 6.67045 57.5481 6.60674L57.454 6.64057C57.4766 6.70354 57.4985 6.76685 57.5197 6.83049L57.6146 6.79893ZM57.4769 6.41596C57.4524 6.35265 57.4271 6.28971 57.4012 6.22714L57.3088 6.26545C57.3345 6.32728 57.3594 6.38948 57.3836 6.45204L57.4769 6.41596ZM57.321 6.04003C57.2935 5.97797 57.2653 5.91629 57.2363 5.85502L57.1459 5.8977C57.1745 5.95826 57.2024 6.0192 57.2295 6.08054L57.321 6.04003ZM57.1473 5.67199C57.1168 5.61132 57.0857 5.55105 57.0539 5.49122L56.9656 5.53817C56.997 5.59731 57.0278 5.65686 57.0579 5.71682L57.1473 5.67199ZM56.9562 5.31267C56.9229 5.25352 56.8889 5.1948 56.8543 5.13654L56.7683 5.18765C56.8026 5.24523 56.8361 5.30325 56.869 5.36171L56.9562 5.31267ZM56.7482 4.96286C56.7121 4.90537 56.6754 4.84833 56.638 4.79177L56.5546 4.84691C56.5915 4.90281 56.6278 4.95918 56.6635 5.016L56.7482 4.96286ZM56.5238 4.62334C56.485 4.56763 56.4456 4.51241 56.4056 4.45768L56.3249 4.51671C56.3645 4.5708 56.4034 4.62539 56.4417 4.68044L56.5238 4.62334ZM56.2835 4.29486C56.2422 4.24106 56.2002 4.18776 56.1576 4.13498L56.0798 4.19777C56.1219 4.24994 56.1634 4.30261 56.2042 4.35579L56.2835 4.29486ZM56.028 3.97813C55.9841 3.92635 55.9397 3.8751 55.8947 3.82439L55.8199 3.8908C55.8644 3.94092 55.9083 3.99157 55.9517 4.04275L56.028 3.97813ZM55.7577 3.67386C55.7115 3.62422 55.6647 3.57512 55.6173 3.5266L55.5457 3.59647C55.5926 3.64443 55.6389 3.69295 55.6846 3.74201L55.7577 3.67386ZM55.4734 3.38271C55.4249 3.33531 55.3758 3.28849 55.3261 3.24225L55.258 3.31543C55.307 3.36113 55.3556 3.4074 55.4035 3.45425L55.4734 3.38271ZM55.1756 3.10533C55.1249 3.06029 55.0736 3.01584 55.0219 2.972L54.9572 3.04831C55.0084 3.09165 55.0591 3.13558 55.1092 3.18009L55.1756 3.10533ZM54.865 2.84235C54.8122 2.79976 54.7589 2.75779 54.7051 2.71645L54.6442 2.79574C54.6974 2.8366 54.7501 2.87808 54.8022 2.92017L54.865 2.84235ZM54.5423 2.59437C54.4876 2.55434 54.4324 2.51494 54.3766 2.47619L54.3195 2.55828C54.3746 2.59658 54.4292 2.63552 54.4833 2.67508L54.5423 2.59437ZM54.2082 2.36197C54.1517 2.32459 54.0946 2.28786 54.0371 2.2518L53.984 2.33651C54.0408 2.37215 54.0972 2.40845 54.1531 2.4454L54.2082 2.36197ZM53.8635 2.14571C53.8052 2.11107 53.7465 2.0771 53.6873 2.04381L53.6383 2.13095C53.6967 2.16385 53.7548 2.19743 53.8123 2.23166L53.8635 2.14571ZM53.5088 1.9461C53.4489 1.91428 53.3887 1.88315 53.328 1.85272L53.2832 1.94211C53.3431 1.97218 53.4027 2.00295 53.4618 2.0344L53.5088 1.9461ZM53.145 1.76365C53.0837 1.73473 53.022 1.70651 52.96 1.67902L52.9195 1.77045C52.9808 1.79762 53.0417 1.8255 53.1023 1.85408L53.145 1.76365ZM52.7728 1.59879C52.7103 1.57284 52.6473 1.54761 52.584 1.52312L52.5479 1.61639C52.6105 1.64059 52.6727 1.66552 52.7345 1.69116L52.7728 1.59879ZM52.3932 1.45193C52.3295 1.42902 52.2655 1.40685 52.2011 1.38542L52.1695 1.48031C52.2331 1.50148 52.2965 1.52339 52.3594 1.54603L52.3932 1.45193ZM52.007 1.32344C51.9423 1.30363 51.8773 1.28456 51.8119 1.26624L51.785 1.36254C51.8495 1.38063 51.9138 1.39948 51.9778 1.41906L52.007 1.32344ZM51.6151 1.21362C51.5495 1.19694 51.4837 1.18102 51.4175 1.16587L51.3952 1.26334C51.4606 1.27832 51.5256 1.29405 51.5904 1.31054L51.6151 1.21362ZM51.2183 1.12272C51.1521 1.1092 51.0856 1.09646 51.0188 1.08449L51.0012 1.18292C51.0671 1.19475 51.1329 1.20735 51.1983 1.2207L51.2183 1.12272ZM50.8177 1.05091C50.7509 1.04058 50.6839 1.03103 50.6166 1.02225L50.6037 1.12141C50.6702 1.13008 50.7364 1.13953 50.8024 1.14974L50.8177 1.05091ZM50.4142 0.998296C50.347 0.991153 50.2796 0.984788 50.212 0.979211L50.2038 1.07887C50.2706 1.08439 50.3373 1.09068 50.4037 1.09774L50.4142 0.998296ZM50.0088 0.964874C49.9413 0.960914 49.8736 0.957737 49.8057 0.955351L49.8022 1.05529C49.8693 1.05765 49.9362 1.06079 50.0029 1.0647L50.0088 0.964874ZM49.6022 0.950585C49.5682 0.950187 49.5341 0.949987 49.5 0.949987L49.5 1.04999C49.5337 1.04999 49.5674 1.05018 49.601 1.05058L49.6022 0.950585ZM49.5 0.949987L49.4002 0.949987L49.4002 1.04999L49.5 1.04999L49.5 0.949987ZM49.2007 0.949987L49.0012 0.949987L49.0012 1.04999L49.2007 1.04999L49.2007 0.949987ZM48.8016 0.949987L48.6021 0.949987L48.6021 1.04999L48.8016 1.04999L48.8016 0.949987ZM48.4026 0.949987L48.203 0.949987L48.203 1.04999L48.4026 1.04999L48.4026 0.949987ZM48.0035 0.949987L47.8039 0.949987L47.8039 1.04999L48.0035 1.04999L48.0035 0.949987ZM47.6044 0.949987L47.4049 0.949987L47.4049 1.04999L47.6044 1.04999L47.6044 0.949987ZM47.2053 0.949987L47.0058 0.949987L47.0058 1.04999L47.2053 1.04999L47.2053 0.949987ZM46.8063 0.949987L46.6067 0.949987L46.6067 1.04999L46.8063 1.04999L46.8063 0.949987ZM46.4072 0.949987L46.2077 0.949987L46.2077 1.04999L46.4072 1.04999L46.4072 0.949987ZM46.0081 0.949987L45.8086 0.949987L45.8086 1.04999L46.0081 1.04999L46.0081 0.949987ZM45.6091 0.949987L45.4095 0.949987L45.4095 1.04999L45.6091 1.04999L45.6091 0.949987ZM45.21 0.949987L45.0105 0.949987L45.0105 1.04999L45.21 1.04999L45.21 0.949987ZM44.8109 0.949987L44.6114 0.949987L44.6114 1.04999L44.8109 1.04999L44.8109 0.949987ZM44.4118 0.949987L44.2123 0.949987L44.2123 1.04999L44.4118 1.04999L44.4118 0.949987ZM44.0128 0.949987L43.8132 0.949987L43.8132 1.04999L44.0128 1.04999L44.0128 0.949987ZM43.6137 0.949987L43.4142 0.949987L43.4142 1.04999L43.6137 1.04999L43.6137 0.949987ZM43.2146 0.949987L43.0151 0.949987L43.0151 1.04999L43.2146 1.04999L43.2146 0.949987ZM42.8156 0.949987L42.616 0.949987L42.616 1.04999L42.8156 1.04999L42.8156 0.949987ZM42.4165 0.949987L42.217 0.949987L42.217 1.04999L42.4165 1.04999L42.4165 0.949987ZM42.0174 0.949986L41.8179 0.949986L41.8179 1.04999L42.0174 1.04999L42.0174 0.949986ZM41.6184 0.949986L41.4188 0.949986L41.4188 1.04999L41.6184 1.04999L41.6184 0.949986ZM41.2193 0.949986L41.0197 0.949986L41.0197 1.04999L41.2193 1.04999L41.2193 0.949986ZM40.8202 0.949986L40.6207 0.949986L40.6207 1.04999L40.8202 1.04999L40.8202 0.949986ZM40.4211 0.949986L40.2216 0.949986L40.2216 1.04999L40.4211 1.04999L40.4211 0.949986ZM40.0221 0.949986L39.8225 0.949986L39.8225 1.04999L40.0221 1.04999L40.0221 0.949986ZM39.623 0.949986L39.4235 0.949986L39.4235 1.04999L39.623 1.04999L39.623 0.949986ZM39.2239 0.949986L39.0244 0.949986L39.0244 1.04999L39.2239 1.04999L39.2239 0.949986ZM38.8249 0.949986L38.6253 0.949986L38.6253 1.04999L38.8249 1.04999L38.8249 0.949986ZM38.4258 0.949986L38.2263 0.949986L38.2263 1.04999L38.4258 1.04999L38.4258 0.949986ZM38.0267 0.949986L37.8272 0.949986L37.8272 1.04999L38.0267 1.04999L38.0267 0.949986ZM37.6276 0.949986L37.4281 0.949986L37.4281 1.04999L37.6276 1.04999L37.6276 0.949986ZM37.2286 0.949986L37.029 0.949986L37.029 1.04999L37.2286 1.04999L37.2286 0.949986ZM36.8295 0.949986L36.63 0.949986L36.63 1.04999L36.8295 1.04999L36.8295 0.949986ZM36.4304 0.949986L36.2309 0.949986L36.2309 1.04999L36.4304 1.04999L36.4304 0.949986ZM36.0314 0.949986L35.8318 0.949986L35.8318 1.04999L36.0314 1.04999L36.0314 0.949986ZM35.6323 0.949986L35.4328 0.949986L35.4328 1.04999L35.6323 1.04999L35.6323 0.949986ZM35.2332 0.949986L35.0337 0.949986L35.0337 1.04999L35.2332 1.04999L35.2332 0.949986ZM34.8342 0.949986L34.6346 0.949986L34.6346 1.04999L34.8342 1.04999L34.8342 0.949986ZM34.4351 0.949986L34.2355 0.949986L34.2355 1.04999L34.4351 1.04999L34.4351 0.949986ZM34.036 0.949986L33.8365 0.949986L33.8365 1.04999L34.036 1.04999L34.036 0.949986ZM33.6369 0.949986L33.4374 0.949986L33.4374 1.04999L33.6369 1.04999L33.6369 0.949986ZM33.2379 0.949986L33.0383 0.949986L33.0383 1.04999L33.2379 1.04999L33.2379 0.949986ZM32.8388 0.949986L32.6393 0.949986L32.6393 1.04999L32.8388 1.04999L32.8388 0.949986ZM32.4397 0.949986L32.2402 0.949986L32.2402 1.04999L32.4397 1.04999L32.4397 0.949986ZM32.0407 0.949986L31.8411 0.949986L31.8411 1.04999L32.0407 1.04999L32.0407 0.949986ZM31.6416 0.949986L31.4421 0.949986L31.4421 1.04999L31.6416 1.04999L31.6416 0.949986ZM31.2425 0.949986L31.043 0.949986L31.043 1.04999L31.2425 1.04999L31.2425 0.949986ZM30.8434 0.949986L30.6439 0.949986L30.6439 1.04999L30.8434 1.04999L30.8434 0.949986ZM30.4444 0.949986L30.2448 0.949986L30.2448 1.04999L30.4444 1.04999L30.4444 0.949986ZM30.0453 0.949986L29.8458 0.949986L29.8458 1.04999L30.0453 1.04999L30.0453 0.949986ZM29.6462 0.949986L29.4467 0.949986L29.4467 1.04999L29.6462 1.04999L29.6462 0.949986ZM29.2472 0.949986L29.0476 0.949986L29.0476 1.04999L29.2472 1.04999L29.2472 0.949986ZM28.8481 0.949986L28.6486 0.949986L28.6486 1.04999L28.8481 1.04999L28.8481 0.949986ZM28.449 0.949986L28.2495 0.949986L28.2495 1.04999L28.449 1.04999L28.449 0.949986ZM28.0499 0.949986L27.8504 0.949986L27.8504 1.04999L28.0499 1.04999L28.0499 0.949986ZM27.6509 0.949986L27.4513 0.949986L27.4513 1.04999L27.6509 1.04999L27.6509 0.949986ZM27.2518 0.949986L27.0523 0.949986L27.0523 1.04999L27.2518 1.04999L27.2518 0.949986ZM26.8527 0.949986L26.6532 0.949986L26.6532 1.04999L26.8527 1.04999L26.8527 0.949986ZM26.4537 0.949986L26.2541 0.949986L26.2541 1.04999L26.4537 1.04999L26.4537 0.949986ZM26.0546 0.949986L25.8551 0.949986L25.8551 1.04999L26.0546 1.04999L26.0546 0.949986ZM25.6555 0.949986L25.456 0.949986L25.456 1.04999L25.6555 1.04999L25.6555 0.949986ZM25.2565 0.949986L25.0569 0.949986L25.0569 1.04999L25.2565 1.04999L25.2565 0.949986ZM24.8574 0.949986L24.6578 0.949986L24.6578 1.04999L24.8574 1.04999L24.8574 0.949986ZM24.4583 0.949986L24.2588 0.949986L24.2588 1.04999L24.4583 1.04999L24.4583 0.949986ZM24.0592 0.949986L23.8597 0.949986L23.8597 1.04999L24.0592 1.04999L24.0592 0.949986ZM23.6602 0.949986L23.4606 0.949986L23.4606 1.04999L23.6602 1.04999L23.6602 0.949986ZM23.2611 0.949986L23.0616 0.949986L23.0616 1.04999L23.2611 1.04999L23.2611 0.949986ZM22.862 0.949986L22.6625 0.949986L22.6625 1.04999L22.862 1.04999L22.862 0.949986ZM22.463 0.949986L22.2634 0.949986L22.2634 1.04999L22.463 1.04999L22.463 0.949986ZM22.0639 0.949986L21.8644 0.949986L21.8644 1.04999L22.0639 1.04999L22.0639 0.949986ZM21.6648 0.949986L21.4653 0.949986L21.4653 1.04999L21.6648 1.04999L21.6648 0.949986ZM21.2657 0.949986L21.0662 0.949986L21.0662 1.04999L21.2657 1.04999L21.2657 0.949986ZM20.8667 0.949986L20.6671 0.949986L20.6671 1.04999L20.8667 1.04999L20.8667 0.949986ZM20.4676 0.949986L20.2681 0.949986L20.2681 1.04999L20.4676 1.04999L20.4676 0.949986ZM20.0685 0.949986L19.869 0.949986L19.869 1.04999L20.0685 1.04999L20.0685 0.949986ZM19.6695 0.949986L19.4699 0.949986L19.4699 1.04999L19.6695 1.04999L19.6695 0.949986ZM19.2704 0.949986L19.0709 0.949986L19.0709 1.04999L19.2704 1.04999L19.2704 0.949986ZM18.8713 0.949985L18.6718 0.949985L18.6718 1.04999L18.8713 1.04999L18.8713 0.949985ZM18.4723 0.949985L18.2727 0.949985L18.2727 1.04999L18.4723 1.04999L18.4723 0.949985ZM18.0732 0.949985L17.8736 0.949985L17.8736 1.04999L18.0732 1.04999L18.0732 0.949985ZM17.6741 0.949985L17.4746 0.949985L17.4746 1.04999L17.6741 1.04999L17.6741 0.949985ZM17.275 0.949985L17.0755 0.949985L17.0755 1.04999L17.275 1.04999L17.275 0.949985ZM16.876 0.949985L16.6764 0.949985L16.6764 1.04999L16.876 1.04999L16.876 0.949985ZM16.4769 0.949985L16.2774 0.949985L16.2774 1.04999L16.4769 1.04999L16.4769 0.949985ZM16.0778 0.949985L15.8783 0.949985L15.8783 1.04999L16.0778 1.04999L16.0778 0.949985ZM15.6788 0.949985L15.4792 0.949985L15.4792 1.04999L15.6788 1.04999L15.6788 0.949985ZM15.2797 0.949985L15.0802 0.949985L15.0802 1.04999L15.2797 1.04999L15.2797 0.949985ZM14.8806 0.949985L14.6811 0.949985L14.6811 1.04999L14.8806 1.04999L14.8806 0.949985ZM14.4815 0.949985L14.282 0.949985L14.282 1.04999L14.4815 1.04999L14.4815 0.949985ZM14.0825 0.949985L13.8829 0.949985L13.8829 1.04999L14.0825 1.04999L14.0825 0.949985ZM13.6834 0.949985L13.4839 0.949985L13.4839 1.04999L13.6834 1.04999L13.6834 0.949985ZM13.2843 0.949985L13.0848 0.949985L13.0848 1.04999L13.2843 1.04999L13.2843 0.949985ZM12.8853 0.949985L12.6857 0.949985L12.6857 1.04999L12.8853 1.04999L12.8853 0.949985ZM12.4862 0.949985L12.2867 0.949985L12.2867 1.04999L12.4862 1.04999L12.4862 0.949985ZM12.0871 0.949985L11.8876 0.949985L11.8876 1.04999L12.0871 1.04999L12.0871 0.949985ZM11.688 0.949985L11.4885 0.949985L11.4885 1.04999L11.688 1.04999L11.688 0.949985ZM11.289 0.949985L11.0894 0.949985L11.0894 1.04999L11.289 1.04999L11.289 0.949985ZM10.8899 0.949985L10.6904 0.949985L10.6904 1.04999L10.8899 1.04999L10.8899 0.949985ZM10.4908 0.949985L10.2913 0.949985L10.2913 1.04999L10.4908 1.04999L10.4908 0.949985ZM10.0918 0.949985L9.89223 0.949985L9.89223 1.04999L10.0918 1.04999L10.0918 0.949985ZM9.69269 0.949985L9.49316 0.949985L9.49316 1.04999L9.69269 1.04999L9.69269 0.949985ZM9.29363 0.949985L9.09409 0.949985L9.09409 1.04999L9.29363 1.04999L9.29363 0.949985ZM8.89455 0.949985L8.69502 0.949985L8.69502 1.04999L8.89455 1.04999L8.89455 0.949985ZM8.49548 0.949985L8.29595 0.949985L8.29595 1.04999L8.49548 1.04999L8.49548 0.949985ZM8.09641 0.949985L7.89688 0.949985L7.89688 1.04999L8.09641 1.04999L8.09641 0.949985ZM7.69734 0.949985L7.49781 0.949985L7.49781 1.04999L7.69734 1.04999L7.69734 0.949985ZM7.29827 0.949985L7.09874 0.949985L7.09874 1.04998L7.29827 1.04999L7.29827 0.949985ZM6.8992 0.949985L6.69966 0.949985L6.69966 1.04998L6.8992 1.04998L6.8992 0.949985ZM6.50013 0.949985L6.30059 0.949985L6.30059 1.04998L6.50013 1.04998L6.50013 0.949985ZM6.10106 0.949985L5.90152 0.949985L5.90152 1.04998L6.10106 1.04998L6.10106 0.949985ZM5.70199 0.949985L5.50245 0.949985L5.50245 1.04998L5.70199 1.04998L5.70199 0.949985ZM5.30292 0.949985L5.10338 0.949985L5.10338 1.04998L5.30292 1.04998L5.30292 0.949985ZM4.90385 0.949985L4.70431 0.949985L4.70431 1.04998L4.90385 1.04998L4.90385 0.949985ZM4.50478 0.949985L4.30524 0.949985L4.30524 1.04998L4.50478 1.04998L4.50478 0.949985ZM4.1057 0.949985L3.90617 0.949985L3.90617 1.04998L4.1057 1.04998L4.1057 0.949985ZM3.70664 0.949985L3.5071 0.949985L3.5071 1.04998L3.70664 1.04998L3.70664 0.949985ZM3.30756 0.949985L3.10803 0.949985L3.10803 1.04998L3.30756 1.04998L3.30756 0.949985ZM2.90849 0.949985L2.70896 0.949985L2.70896 1.04998L2.90849 1.04998L2.90849 0.949985ZM2.50942 0.949985L2.30989 0.949985L2.30989 1.04998L2.50942 1.04998L2.50942 0.949985ZM2.11035 0.949985L1.91081 0.949985L1.91081 1.04998L2.11035 1.04998L2.11035 0.949985ZM1.71128 0.949985L1.51175 0.949985L1.51175 1.04998L1.71128 1.04998L1.71128 0.949985ZM1.31221 0.949985L1.21245 0.949985L1.21245 1.04998L1.31221 1.04998L1.31221 0.949985ZM1.21191 0.949988C1.17637 0.950372 1.14239 0.957783 1.1114 0.970938L1.15048 1.06299C1.16966 1.05485 1.19074 1.05022 1.21299 1.04998L1.21191 0.949988ZM0.969807 1.11411C0.957005 1.14522 0.949969 1.17926 0.949969 1.21483H1.04997C1.04997 1.19254 1.05436 1.17141 1.06229 1.15215L0.969807 1.11411ZM0.949969 1.21483C0.949969 1.2436 0.95464 1.27156 0.963346 1.29787L1.05828 1.26645C1.05287 1.25011 1.04997 1.23274 1.04997 1.21483H0.949969ZM1.06138 1.43127C1.08374 1.44741 1.10878 1.46031 1.13587 1.4692L1.16704 1.37418C1.14987 1.36855 1.13404 1.36039 1.11993 1.3502L1.06138 1.43127ZM1.13587 1.4692C1.16701 1.47941 1.19806 1.4898 1.22903 1.50036L1.26131 1.40572C1.22997 1.39503 1.19855 1.38451 1.16704 1.37418L1.13587 1.4692ZM1.4139 1.56583C1.47538 1.58842 1.53652 1.6117 1.59732 1.63567L1.63399 1.54263C1.57247 1.51838 1.5106 1.49482 1.44838 1.47197L1.4139 1.56583ZM1.77889 1.70969C1.83924 1.73513 1.89923 1.76124 1.95885 1.78802L1.99983 1.6968C1.93949 1.6697 1.87879 1.64328 1.81772 1.61754L1.77889 1.70969ZM2.13684 1.87048C2.19589 1.89868 2.25457 1.92755 2.31285 1.95707L2.35804 1.86786C2.29906 1.83799 2.23969 1.80878 2.17993 1.78024L2.13684 1.87048ZM2.48687 2.04777C2.54452 2.07868 2.60178 2.11024 2.65862 2.14244L2.70791 2.05543C2.65039 2.02285 2.59246 1.99091 2.53412 1.95964L2.48687 2.04777ZM2.82825 2.24114C2.88441 2.27471 2.94016 2.3089 2.99547 2.34372L3.04874 2.25909C2.99278 2.22386 2.93637 2.18926 2.87954 2.1553L2.82825 2.24114ZM3.16027 2.45015C3.21482 2.48629 3.26893 2.52304 3.32259 2.5604L3.37973 2.47833C3.32544 2.44053 3.27069 2.40335 3.21549 2.36678L3.16027 2.45015ZM3.48226 2.67434C3.53508 2.71296 3.58743 2.75217 3.63931 2.79198L3.70019 2.71265C3.6477 2.67237 3.59472 2.63269 3.54128 2.59361L3.48226 2.67434ZM3.79357 2.9132C3.84453 2.95421 3.89501 2.9958 3.94499 3.03796L4.00946 2.96152C3.95889 2.91886 3.90782 2.87679 3.85626 2.83529L3.79357 2.9132ZM4.0935 3.16619C4.1425 3.2095 4.19101 3.25337 4.23899 3.29779L4.30693 3.22441C4.25838 3.17947 4.2093 3.13508 4.15972 3.09126L4.0935 3.16619ZM4.38142 3.43274C4.42838 3.47826 4.47481 3.52433 4.5207 3.57093L4.59195 3.50076C4.54551 3.45361 4.49854 3.407 4.45103 3.36094L4.38142 3.43274ZM4.65675 3.7123C4.70155 3.75993 4.7458 3.80809 4.7895 3.85676L4.86391 3.78995C4.8197 3.74071 4.77492 3.69199 4.7296 3.64379L4.65675 3.7123ZM4.91889 4.00426C4.96144 4.05391 5.00342 4.10405 5.04482 4.15469L5.12224 4.09139C5.08034 4.04016 5.03787 3.98942 4.99482 3.93919L4.91889 4.00426ZM5.16725 4.308C5.20747 4.35956 5.24709 4.4116 5.28612 4.46411L5.36638 4.40445C5.32689 4.35132 5.2868 4.29867 5.24611 4.2465L5.16725 4.308ZM5.40132 4.62289C5.4391 4.67625 5.47628 4.73008 5.51284 4.78435L5.59577 4.72847C5.55878 4.67356 5.52116 4.6191 5.48293 4.56511L5.40132 4.62289ZM5.62056 4.94829C5.65582 5.00333 5.69045 5.0588 5.72446 5.11471L5.80989 5.06273C5.77548 5.00617 5.74044 4.95004 5.70476 4.89435L5.62056 4.94829ZM5.82448 5.28352C5.85714 5.34012 5.88915 5.39713 5.92052 5.45454L6.00827 5.4066C5.97653 5.3485 5.94414 5.29082 5.9111 5.23355L5.82448 5.28352ZM6.0126 5.62785C6.04258 5.68589 6.0719 5.74433 6.10056 5.80315L6.19046 5.75934C6.16145 5.69982 6.13178 5.6407 6.10145 5.58196L6.0126 5.62785ZM6.18444 5.9805C6.21169 6.0399 6.23827 6.09967 6.26418 6.1598L6.35602 6.12024C6.32981 6.05939 6.30291 5.99891 6.27533 5.9388L6.18444 5.9805ZM6.33965 6.3408C6.36411 6.40142 6.38787 6.46239 6.41095 6.52369L6.50454 6.48847C6.48119 6.42643 6.45714 6.36473 6.43239 6.30339L6.33965 6.3408ZM6.47787 6.70799C6.49945 6.76964 6.52033 6.83163 6.54051 6.89393L6.63564 6.86312C6.61522 6.80007 6.59409 6.73735 6.57226 6.67496L6.47787 6.70799ZM6.59878 7.08128C6.61743 7.14384 6.63538 7.20669 6.65261 7.26985L6.74909 7.24352C6.73165 7.17961 6.71348 7.11601 6.69461 7.05271L6.59878 7.08128ZM6.7021 7.4599C6.71779 7.5232 6.73277 7.58678 6.74703 7.65064L6.84462 7.62885C6.8302 7.56423 6.81504 7.49989 6.79916 7.43583L6.7021 7.4599ZM6.78755 7.8427C6.80028 7.9067 6.81229 7.97097 6.82356 8.03548L6.92207 8.01827C6.91066 7.95299 6.89851 7.88796 6.88563 7.82319L6.78755 7.8427ZM6.85507 8.22909C6.86481 8.29367 6.87382 8.35849 6.88209 8.42355L6.98129 8.41093C6.97292 8.34511 6.96381 8.27952 6.95395 8.21417L6.85507 8.22909ZM6.90456 8.61825C6.9113 8.68326 6.9173 8.74848 6.92256 8.81392L7.02224 8.80591C7.01692 8.7397 7.01084 8.67371 7.00402 8.60794L6.90456 8.61825ZM6.936 9.00935C6.93973 9.07454 6.94272 9.13992 6.94497 9.2055L7.04491 9.20207C7.04264 9.13573 7.03961 9.06958 7.03584 9.00363L6.936 9.00935ZM6.94944 9.40155C6.94982 9.43432 6.95 9.46713 6.95 9.49999H7.05C7.05 9.46675 7.04981 9.43356 7.04944 9.40041L6.94944 9.40155ZM6.95 9.49999C6.95 9.53284 6.94982 9.56565 6.94944 9.59842L7.04944 9.59956C7.04981 9.56642 7.05 9.53322 7.05 9.49999H6.95ZM6.94497 9.79447C6.94272 9.86005 6.93973 9.92544 6.936 9.99062L7.03584 9.99634C7.03961 9.93039 7.04264 9.86424 7.04491 9.7979L6.94497 9.79447ZM6.92256 10.1861C6.9173 10.2515 6.9113 10.3167 6.90456 10.3817L7.00402 10.392C7.01084 10.3263 7.01692 10.2603 7.02224 10.1941L6.92256 10.1861ZM6.88209 10.5764C6.87382 10.6415 6.86481 10.7063 6.85507 10.7709L6.95395 10.7858C6.96381 10.7205 6.97292 10.6549 6.98129 10.589L6.88209 10.5764ZM6.82356 10.9645C6.81229 11.029 6.80028 11.0933 6.78756 11.1573L6.88563 11.1768C6.89851 11.112 6.91066 11.047 6.92207 10.9817L6.82356 10.9645ZM6.74703 11.3493C6.73277 11.4132 6.71779 11.4768 6.7021 11.5401L6.79916 11.5641C6.81504 11.5001 6.8302 11.4357 6.84462 11.3711L6.74703 11.3493ZM6.65261 11.7301C6.63538 11.7933 6.61743 11.8561 6.59878 11.9187L6.69461 11.9473C6.71348 11.884 6.73165 11.8204 6.74909 11.7565L6.65261 11.7301ZM6.54051 12.106C6.52033 12.1683 6.49945 12.2303 6.47787 12.292L6.57226 12.325C6.59409 12.2626 6.61522 12.1999 6.63564 12.1369L6.54051 12.106ZM6.41095 12.4763C6.38787 12.5376 6.36411 12.5986 6.33965 12.6592L6.43239 12.6966C6.45714 12.6352 6.48119 12.5735 6.50454 12.5115L6.41095 12.4763ZM6.26418 12.8402C6.23827 12.9003 6.21169 12.9601 6.18444 13.0195L6.27533 13.0612C6.30291 13.0011 6.32981 12.9406 6.35602 12.8797L6.26418 12.8402ZM6.10056 13.1968C6.0719 13.2556 6.04258 13.3141 6.0126 13.3721L6.10145 13.418C6.13178 13.3593 6.16145 13.3002 6.19046 13.2406L6.10056 13.1968ZM5.92052 13.5454C5.88915 13.6028 5.85713 13.6599 5.82448 13.7165L5.9111 13.7664C5.94414 13.7092 5.97653 13.6515 6.00827 13.5934L5.92052 13.5454ZM5.72446 13.8853C5.69045 13.9412 5.65581 13.9966 5.62056 14.0517L5.70476 14.1056C5.74044 14.0499 5.77548 13.9938 5.80989 13.9372L5.72446 13.8853ZM5.51284 14.2156C5.47628 14.2699 5.4391 14.3237 5.40131 14.3771L5.48293 14.4349C5.52116 14.3809 5.55878 14.3264 5.59577 14.2715L5.51284 14.2156ZM5.28612 14.5359C5.24709 14.5884 5.20746 14.6404 5.16725 14.692L5.24611 14.7535C5.28679 14.7013 5.32688 14.6487 5.36638 14.5955L5.28612 14.5359ZM5.04482 14.8453C5.00341 14.8959 4.96143 14.9461 4.91889 14.9957L4.99482 15.0608C5.03786 15.0106 5.08034 14.9598 5.12223 14.9086L5.04482 14.8453ZM4.78949 15.1432C4.7458 15.1919 4.70155 15.24 4.65675 15.2877L4.72959 15.3562C4.77492 15.308 4.81969 15.2593 4.8639 15.21L4.78949 15.1432ZM4.52069 15.4291C4.4748 15.4756 4.42837 15.5217 4.38142 15.5672L4.45103 15.639C4.49854 15.593 4.54551 15.5464 4.59194 15.4992L4.52069 15.4291ZM4.23898 15.7022C4.191 15.7466 4.1425 15.7905 4.09349 15.8338L4.15971 15.9087C4.2093 15.8649 4.25837 15.8205 4.30692 15.7756L4.23898 15.7022ZM3.94498 15.962C3.895 16.0042 3.84452 16.0458 3.79356 16.0868L3.85625 16.1647C3.90782 16.1232 3.95889 16.0811 4.00946 16.0385L3.94498 15.962ZM3.6393 16.208C3.58742 16.2478 3.53507 16.287 3.48225 16.3256L3.54127 16.4064C3.59472 16.3673 3.64769 16.3276 3.70018 16.2873L3.6393 16.208ZM3.32258 16.4396C3.26892 16.4769 3.21481 16.5137 3.16026 16.5498L3.21548 16.6332C3.27068 16.5966 3.32543 16.5594 3.37972 16.5216L3.32258 16.4396ZM2.99546 16.6563C2.94015 16.6911 2.88441 16.7253 2.82824 16.7588L2.87954 16.8447C2.93637 16.8107 2.99277 16.7761 3.04873 16.7409L2.99546 16.6563ZM2.65862 16.8575C2.60177 16.8897 2.54452 16.9213 2.48686 16.9522L2.53411 17.0403C2.59245 17.0091 2.65038 16.9771 2.7079 16.9446L2.65862 16.8575ZM2.31285 17.0429C2.25456 17.0724 2.19589 17.1013 2.13683 17.1295L2.17993 17.2197C2.23968 17.1912 2.29905 17.162 2.35803 17.1321L2.31285 17.0429ZM1.95884 17.212C1.89922 17.2387 1.83923 17.2649 1.77888 17.2903L1.81771 17.3824C1.87878 17.3567 1.93949 17.3303 1.99982 17.3032L1.95884 17.212ZM1.59732 17.3643C1.53652 17.3883 1.47537 17.4116 1.41389 17.4341L1.44837 17.528C1.51059 17.5052 1.57246 17.4816 1.63399 17.4573L1.59732 17.3643ZM1.22903 17.4996C1.19805 17.5102 1.167 17.5206 1.13586 17.5308L1.16703 17.6258C1.19854 17.6155 1.22996 17.6049 1.26131 17.5943L1.22903 17.4996ZM1.13587 17.5308C1.10878 17.5397 1.08373 17.5526 1.06138 17.5687L1.11993 17.6498C1.13403 17.6396 1.14986 17.6314 1.16703 17.6258L1.13587 17.5308ZM0.963345 17.7021C0.95464 17.7284 0.949969 17.7564 0.949969 17.7851H1.04997C1.04997 17.7672 1.05287 17.7499 1.05828 17.7335L0.963345 17.7021ZM0.949969 17.7851C0.949969 17.821 0.957108 17.8552 0.970086 17.8865L1.06246 17.8482C1.05443 17.8289 1.04997 17.8076 1.04997 17.7851H0.949969ZM1.11342 18.0299C1.14472 18.0428 1.179 18.05 1.21481 18.05V17.95C1.19237 17.95 1.17109 17.9455 1.15173 17.9375L1.11342 18.0299ZM1.21481 18.05L1.31458 18.05L1.31458 17.95L1.21481 17.95L1.21481 18.05ZM1.5141 18.05L1.71363 18.05L1.71363 17.95L1.5141 17.95L1.5141 18.05ZM1.91315 18.05L2.11268 18.05L2.11268 17.95L1.91315 17.95L1.91315 18.05ZM2.3122 18.05L2.51173 18.05L2.51173 17.95L2.3122 17.95L2.3122 18.05ZM2.71126 18.05L2.91078 18.05L2.91078 17.95L2.71126 17.95L2.71126 18.05ZM3.11031 18.05L3.30983 18.05L3.30983 17.95L3.11031 17.95L3.11031 18.05ZM3.50936 18.05L3.70888 18.05L3.70888 17.95L3.50936 17.95L3.50936 18.05ZM3.90841 18.05L4.10793 18.05L4.10793 17.95L3.90841 17.95L3.90841 18.05ZM4.30746 18.05L4.50699 18.05L4.50699 17.95L4.30746 17.95L4.30746 18.05ZM4.70651 18.05L4.90604 18.05L4.90604 17.95L4.70651 17.95L4.70651 18.05ZM5.10556 18.05L5.30509 18.05L5.30509 17.95L5.10556 17.95L5.10556 18.05ZM5.50461 18.05L5.70414 18.05L5.70414 17.95L5.50461 17.95L5.50461 18.05ZM5.90366 18.05L6.10319 18.05L6.10319 17.95L5.90366 17.95L5.90366 18.05ZM6.30271 18.05L6.50224 18.05L6.50224 17.95L6.30271 17.95L6.30271 18.05ZM6.70177 18.05L6.90129 18.05L6.90129 17.95L6.70177 17.95L6.70177 18.05ZM7.10082 18.05L7.30034 18.05L7.30034 17.95L7.10082 17.95L7.10082 18.05ZM7.49987 18.05L7.69939 18.05L7.69939 17.95L7.49987 17.95L7.49987 18.05ZM7.89892 18.05L8.09844 18.05L8.09844 17.95L7.89892 17.95L7.89892 18.05ZM8.29797 18.05L8.49749 18.05L8.49749 17.95L8.29797 17.95L8.29797 18.05ZM8.69702 18.05L8.89654 18.05L8.89654 17.95L8.69702 17.95L8.69702 18.05ZM9.09607 18.05L9.2956 18.05L9.2956 17.95L9.09607 17.95L9.09607 18.05ZM9.49512 18.05L9.69465 18.05L9.69465 17.95L9.49512 17.95L9.49512 18.05ZM9.89417 18.05L10.0937 18.05L10.0937 17.95L9.89417 17.95L9.89417 18.05ZM10.2932 18.05L10.4928 18.05L10.4928 17.95L10.2932 17.95L10.2932 18.05ZM10.6923 18.05L10.8918 18.05L10.8918 17.95L10.6923 17.95L10.6923 18.05ZM11.0913 18.05L11.2909 18.05L11.2909 17.95L11.0913 17.95L11.0913 18.05ZM11.4904 18.05L11.6899 18.05L11.6899 17.95L11.4904 17.95L11.4904 18.05ZM11.8894 18.05L12.089 18.05L12.089 17.95L11.8894 17.95L11.8894 18.05ZM12.2885 18.05L12.488 18.05L12.488 17.95L12.2885 17.95L12.2885 18.05ZM12.6875 18.05L12.8871 18.05L12.8871 17.95L12.6875 17.95L12.6875 18.05ZM13.0866 18.05L13.2861 18.05L13.2861 17.95L13.0866 17.95L13.0866 18.05ZM13.4856 18.05L13.6852 18.05L13.6852 17.95L13.4856 17.95L13.4856 18.05ZM13.8847 18.05L14.0842 18.05L14.0842 17.95L13.8847 17.95L13.8847 18.05ZM14.2837 18.05L14.4833 18.05L14.4833 17.95L14.2837 17.95L14.2837 18.05ZM14.6828 18.05L14.8823 18.05L14.8823 17.95L14.6828 17.95L14.6828 18.05ZM15.0818 18.05L15.2814 18.05L15.2814 17.95L15.0818 17.95L15.0818 18.05ZM15.4809 18.05L15.6804 18.05L15.6804 17.95L15.4809 17.95L15.4809 18.05ZM15.8799 18.05L16.0795 18.05L16.0795 17.95L15.8799 17.95L15.8799 18.05ZM16.279 18.05L16.4785 18.05L16.4785 17.95L16.279 17.95L16.279 18.05ZM16.6781 18.05L16.8776 18.05L16.8776 17.95L16.6781 17.95L16.6781 18.05ZM17.0771 18.05L17.2766 18.05L17.2766 17.95L17.0771 17.95L17.0771 18.05ZM17.4762 18.05L17.6757 18.05L17.6757 17.95L17.4762 17.95L17.4762 18.05ZM17.8752 18.05L18.0747 18.05L18.0747 17.95L17.8752 17.95L17.8752 18.05ZM18.2743 18.05L18.4738 18.05L18.4738 17.95L18.2743 17.95L18.2743 18.05ZM18.6733 18.05L18.8728 18.05L18.8728 17.95L18.6733 17.95L18.6733 18.05ZM19.0724 18.05L19.2719 18.05L19.2719 17.95L19.0724 17.95L19.0724 18.05ZM19.4714 18.05L19.6709 18.05L19.6709 17.95L19.4714 17.95L19.4714 18.05ZM19.8705 18.05L20.07 18.05L20.07 17.95L19.8705 17.95L19.8705 18.05ZM20.2695 18.05L20.469 18.05L20.469 17.95L20.2695 17.95L20.2695 18.05ZM20.6686 18.05L20.8681 18.05L20.8681 17.95L20.6686 17.95L20.6686 18.05ZM21.0676 18.05L21.2671 18.05L21.2671 17.95L21.0676 17.95L21.0676 18.05ZM21.4667 18.05L21.6662 18.05L21.6662 17.95L21.4667 17.95L21.4667 18.05ZM21.8657 18.05L22.0652 18.05L22.0652 17.95L21.8657 17.95L21.8657 18.05ZM22.2648 18.05L22.4643 18.05L22.4643 17.95L22.2648 17.95L22.2648 18.05ZM22.6638 18.05L22.8634 18.05L22.8634 17.95L22.6638 17.95L22.6638 18.05ZM23.0629 18.05L23.2624 18.05L23.2624 17.95L23.0629 17.95L23.0629 18.05ZM23.4619 18.05L23.6615 18.05L23.6615 17.95L23.4619 17.95L23.4619 18.05ZM23.861 18.05L24.0605 18.05L24.0605 17.95L23.861 17.95L23.861 18.05ZM24.26 18.05L24.4596 18.05L24.4596 17.95L24.26 17.95L24.26 18.05ZM24.6591 18.05L24.8586 18.05L24.8586 17.95L24.6591 17.95L24.6591 18.05ZM25.0581 18.05L25.2577 18.05L25.2577 17.95L25.0581 17.95L25.0581 18.05ZM25.4572 18.05L25.6567 18.05L25.6567 17.95L25.4572 17.95L25.4572 18.05ZM25.8562 18.05L26.0558 18.05L26.0558 17.95L25.8562 17.95L25.8562 18.05ZM26.2553 18.05L26.4548 18.05L26.4548 17.95L26.2553 17.95L26.2553 18.05ZM26.6543 18.05L26.8539 18.05L26.8539 17.95L26.6543 17.95L26.6543 18.05ZM27.0534 18.05L27.2529 18.05L27.2529 17.95L27.0534 17.95L27.0534 18.05ZM27.4524 18.05L27.652 18.05L27.652 17.95L27.4524 17.95L27.4524 18.05ZM27.8515 18.05L28.051 18.05L28.051 17.95L27.8515 17.95L27.8515 18.05ZM28.2505 18.05L28.4501 18.05L28.4501 17.95L28.2505 17.95L28.2505 18.05ZM28.6496 18.05L28.8491 18.05L28.8491 17.95L28.6496 17.95L28.6496 18.05ZM29.0487 18.05L29.2482 18.05L29.2482 17.95L29.0487 17.95L29.0487 18.05ZM29.4477 18.05L29.6472 18.05L29.6472 17.95L29.4477 17.95L29.4477 18.05ZM29.8468 18.05L30.0463 18.05L30.0463 17.95L29.8468 17.95L29.8468 18.05ZM30.2458 18.05L30.4453 18.05L30.4453 17.95L30.2458 17.95L30.2458 18.05ZM30.6449 18.05L30.8444 18.05L30.8444 17.95L30.6449 17.95L30.6449 18.05ZM31.0439 18.05L31.2434 18.05L31.2434 17.95L31.0439 17.95L31.0439 18.05ZM31.443 18.05L31.6425 18.05L31.6425 17.95L31.443 17.95L31.443 18.05ZM31.842 18.05L32.0415 18.05L32.0415 17.95L31.842 17.95L31.842 18.05ZM32.2411 18.05L32.4406 18.05L32.4406 17.95L32.2411 17.95L32.2411 18.05ZM32.6401 18.05L32.8396 18.05L32.8396 17.95L32.6401 17.95L32.6401 18.05ZM33.0392 18.05L33.2387 18.05L33.2387 17.95L33.0392 17.95L33.0392 18.05ZM33.4382 18.05L33.6377 18.05L33.6377 17.95L33.4382 17.95L33.4382 18.05ZM33.8373 18.05L34.0368 18.05L34.0368 17.95L33.8373 17.95L33.8373 18.05ZM34.2363 18.05L34.4358 18.05L34.4358 17.95L34.2363 17.95L34.2363 18.05ZM34.6354 18.05L34.8349 18.05L34.8349 17.95L34.6354 17.95L34.6354 18.05ZM35.0344 18.05L35.2339 18.05L35.2339 17.95L35.0344 17.95L35.0344 18.05ZM35.4335 18.05L35.633 18.05L35.633 17.95L35.4335 17.95L35.4335 18.05ZM35.8325 18.05L36.032 18.05L36.032 17.95L35.8325 17.95L35.8325 18.05ZM36.2316 18.05L36.4311 18.05L36.4311 17.95L36.2316 17.95L36.2316 18.05ZM36.6306 18.05L36.8301 18.05L36.8301 17.95L36.6306 17.95L36.6306 18.05ZM37.0296 18.05L37.2292 18.05L37.2292 17.95L37.0296 17.95L37.0296 18.05ZM37.4287 18.05L37.6282 18.05L37.6282 17.95L37.4287 17.95L37.4287 18.05ZM37.8277 18.05L38.0273 18.05L38.0273 17.95L37.8277 17.95L37.8277 18.05ZM38.2268 18.05L38.4263 18.05L38.4263 17.95L38.2268 17.95L38.2268 18.05ZM38.6258 18.05L38.8254 18.05L38.8254 17.95L38.6258 17.95L38.6258 18.05ZM39.0249 18.05L39.2244 18.05L39.2244 17.95L39.0249 17.95L39.0249 18.05ZM39.4239 18.05L39.6235 18.05L39.6235 17.95L39.4239 17.95L39.4239 18.05ZM39.823 18.05L40.0225 18.05L40.0225 17.95L39.823 17.95L39.823 18.05ZM40.222 18.05L40.4216 18.05L40.4216 17.95L40.222 17.95L40.222 18.05ZM40.6211 18.05L40.8206 18.05L40.8206 17.95L40.6211 17.95L40.6211 18.05ZM41.0201 18.05L41.2197 18.05L41.2197 17.95L41.0201 17.95L41.0201 18.05ZM41.4192 18.05L41.6187 18.05L41.6187 17.95L41.4192 17.95L41.4192 18.05ZM41.8182 18.05L42.0177 18.05L42.0177 17.95L41.8182 17.95L41.8182 18.05ZM42.2173 18.05L42.4168 18.05L42.4168 17.95L42.2173 17.95L42.2173 18.05ZM42.6163 18.05L42.8158 18.05L42.8158 17.95L42.6163 17.95L42.6163 18.05ZM43.0154 18.05L43.2149 18.05L43.2149 17.95L43.0154 17.95L43.0154 18.05ZM43.4144 18.05L43.6139 18.05L43.6139 17.95L43.4144 17.95L43.4144 18.05ZM43.8135 18.05L44.013 18.05L44.013 17.95L43.8135 17.95L43.8135 18.05ZM44.2125 18.05L44.412 18.05L44.412 17.95L44.2125 17.95L44.2125 18.05ZM44.6116 18.05L44.8111 18.05L44.8111 17.95L44.6116 17.95L44.6116 18.05ZM45.0106 18.05L45.2101 18.05L45.2101 17.95L45.0106 17.95L45.0106 18.05ZM45.4097 18.05L45.6092 18.05L45.6092 17.95L45.4097 17.95L45.4097 18.05ZM45.8087 18.05L46.0082 18.05L46.0082 17.95L45.8087 17.95L45.8087 18.05ZM46.2077 18.05L46.4073 18.05L46.4073 17.95L46.2077 17.95L46.2077 18.05ZM46.6068 18.05L46.8063 18.05L46.8063 17.95L46.6068 17.95L46.6068 18.05ZM47.0058 18.05L47.2054 18.05L47.2054 17.95L47.0058 17.95L47.0058 18.05ZM47.4049 18.05L47.6044 18.05L47.6044 17.95L47.4049 17.95L47.4049 18.05ZM47.8039 18.05L48.0035 18.05L48.0035 17.95L47.8039 17.95L47.8039 18.05ZM48.203 18.05L48.4025 18.05L48.4025 17.95L48.203 17.95L48.203 18.05ZM48.602 18.05L48.8016 18.05L48.8016 17.95L48.602 17.95L48.602 18.05ZM49.0011 18.05L49.2006 18.05L49.2006 17.95L49.0011 17.95L49.0011 18.05ZM49.4001 18.05L49.5 18.05L49.5 17.95L49.4001 17.95L49.4001 18.05ZM49.5 18.05C49.5008 18.05 49.5016 18.05 49.5025 18.05L49.5024 17.95C49.5016 17.95 49.5008 17.95 49.5 17.95V18.05ZM49.5074 18.05C49.5082 18.05 49.5091 18.05 49.5099 18.05L49.5098 17.95C49.509 17.95 49.5081 17.95 49.5073 17.95L49.5074 18.05ZM49.5099 18.05C49.544 18.0499 49.578 18.0497 49.612 18.0493L49.6107 17.9493C49.5771 17.9497 49.5435 17.9499 49.5098 17.95L49.5099 18.05ZM49.8154 18.0443C49.8832 18.0418 49.9508 18.0386 50.0182 18.0345L50.0123 17.9347C49.9456 17.9387 49.8788 17.9419 49.8117 17.9443L49.8154 18.0443ZM50.2213 18.02C50.2889 18.0143 50.3563 18.0079 50.4234 18.0007L50.4127 17.9013C50.3464 17.9084 50.2798 17.9148 50.213 17.9203L50.2213 18.02ZM50.6256 17.9766C50.6928 17.9677 50.7598 17.9581 50.8265 17.9477L50.8111 17.8489C50.7452 17.8592 50.679 17.8687 50.6126 17.8774L50.6256 17.9766ZM51.0274 17.9139C51.0941 17.9019 51.1606 17.8891 51.2267 17.8755L51.2066 17.7776C51.1413 17.791 51.0756 17.8036 51.0097 17.8155L51.0274 17.9139ZM51.4258 17.8322C51.4919 17.817 51.5577 17.801 51.6231 17.7843L51.5984 17.6874C51.5337 17.7039 51.4687 17.7197 51.4034 17.7348L51.4258 17.8322ZM51.8198 17.7315C51.8851 17.7132 51.95 17.694 52.0147 17.6742L51.9853 17.5786C51.9214 17.5982 51.8572 17.6171 51.7927 17.6353L51.8198 17.7315ZM52.2085 17.6121C52.2729 17.5906 52.3369 17.5684 52.4005 17.5454L52.3666 17.4514C52.3037 17.474 52.2404 17.496 52.1769 17.5172L52.2085 17.6121ZM52.5911 17.4741C52.6543 17.4496 52.7172 17.4243 52.7797 17.3984L52.7413 17.306C52.6795 17.3317 52.6174 17.3567 52.5549 17.3809L52.5911 17.4741ZM52.9666 17.318C53.0286 17.2905 53.0902 17.2622 53.1514 17.2333L53.1086 17.1429C53.0482 17.1715 52.9873 17.1994 52.926 17.2266L52.9666 17.318ZM53.3342 17.1441C53.3948 17.1137 53.455 17.0825 53.5148 17.0507L53.4678 16.9624C53.4087 16.9939 53.3492 17.0247 53.2893 17.0548L53.3342 17.1441ZM53.6931 16.9529C53.7522 16.9196 53.8109 16.8856 53.869 16.8509L53.8179 16.765C53.7604 16.7993 53.7024 16.8329 53.644 16.8658L53.6931 16.9529ZM54.0425 16.7448C54.0999 16.7087 54.1569 16.672 54.2134 16.6346L54.1582 16.5512C54.1024 16.5882 54.0461 16.6245 53.9893 16.6601L54.0425 16.7448ZM54.3816 16.5203C54.4373 16.4816 54.4924 16.4422 54.5471 16.4021L54.488 16.3214C54.434 16.361 54.3795 16.4 54.3245 16.4383L54.3816 16.5203ZM54.7097 16.28C54.7634 16.2387 54.8167 16.1967 54.8694 16.1541L54.8065 16.0763C54.7544 16.1184 54.7018 16.1599 54.6487 16.2008L54.7097 16.28ZM55.026 16.0244C55.0777 15.9806 55.1289 15.9362 55.1796 15.8911L55.1131 15.8164C55.0631 15.8609 55.0125 15.9048 54.9614 15.9482L55.026 16.0244ZM55.3299 15.7542C55.3795 15.708 55.4285 15.6612 55.477 15.6138L55.4071 15.5423C55.3592 15.5891 55.3107 15.6354 55.2617 15.6811L55.3299 15.7542ZM55.6207 15.4699C55.668 15.4214 55.7148 15.3723 55.761 15.3227L55.6877 15.2546C55.6421 15.3036 55.5959 15.3521 55.5491 15.4001L55.6207 15.4699ZM55.8977 15.1722C55.9427 15.1215 55.9871 15.0702 56.0308 15.0185L55.9545 14.9539C55.9112 15.0051 55.8674 15.0557 55.8229 15.1058L55.8977 15.1722ZM56.1603 14.8617C56.2028 14.8089 56.2448 14.7556 56.2861 14.7019L56.2067 14.641C56.1659 14.6941 56.1245 14.7468 56.0825 14.7989L56.1603 14.8617ZM56.408 14.5391C56.4479 14.4844 56.4873 14.4292 56.526 14.3735L56.4439 14.3164C56.4056 14.3715 56.3667 14.426 56.3272 14.4801L56.408 14.5391ZM56.64 14.2051C56.6774 14.1486 56.714 14.0916 56.7501 14.0341L56.6653 13.981C56.6297 14.0378 56.5935 14.0942 56.5566 14.15L56.64 14.2051ZM56.856 13.8605C56.8906 13.8023 56.9245 13.7436 56.9578 13.6845L56.8706 13.6355C56.8377 13.6939 56.8042 13.7519 56.77 13.8095L56.856 13.8605ZM57.0553 13.5061C57.0871 13.4462 57.1182 13.386 57.1486 13.3254L57.0592 13.2806C57.0291 13.3405 56.9984 13.4 56.967 13.4591L57.0553 13.5061ZM57.2375 13.1425C57.2664 13.0812 57.2946 13.0196 57.322 12.9576L57.2306 12.9171C57.2035 12.9784 57.1756 13.0393 57.1471 13.0998L57.2375 13.1425ZM57.4021 12.7706C57.4281 12.708 57.4532 12.6451 57.4777 12.5819L57.3844 12.5458C57.3603 12.6083 57.3354 12.6705 57.3098 12.7323L57.4021 12.7706ZM57.5488 12.3912C57.5717 12.3275 57.5938 12.2635 57.6152 12.1991L57.5203 12.1676C57.4992 12.2312 57.4773 12.2945 57.4547 12.3574L57.5488 12.3912ZM57.6771 12.0052C57.6969 11.9406 57.7159 11.8756 57.7342 11.8103L57.6379 11.7833C57.6198 11.8478 57.601 11.9121 57.5815 11.976L57.6771 12.0052ZM57.7868 11.6135C57.8034 11.548 57.8193 11.4822 57.8344 11.4161L57.737 11.3938C57.722 11.4591 57.7063 11.5242 57.6898 11.5889L57.7868 11.6135ZM57.8775 11.217C57.891 11.1509 57.9037 11.0844 57.9157 11.0177L57.8173 11.0001C57.8055 11.066 57.7929 11.1317 57.7795 11.1971L57.8775 11.217ZM57.9492 10.8167C57.9595 10.75 57.9691 10.683 57.9778 10.6158L57.8787 10.6029C57.87 10.6693 57.8606 10.7355 57.8504 10.8015L57.9492 10.8167ZM58.0018 10.4136C58.0089 10.3464 58.0153 10.279 58.0208 10.2114L57.9212 10.2032C57.9157 10.27 57.9094 10.3366 57.9023 10.403L58.0018 10.4136ZM58.0351 10.0084C58.0391 9.94094 58.0423 9.8733 58.0446 9.80546L57.9447 9.80195C57.9424 9.86901 57.9392 9.93586 57.9353 10.0025L58.0351 10.0084ZM58.0494 9.6021C58.0498 9.56811 58.05 9.53407 58.05 9.49999H57.95C57.95 9.53368 57.9498 9.56733 57.9494 9.60093L58.0494 9.6021Z" fill="#FF6767"/>
</g>
<defs>
<filter id="filter0_b" x="-3.05003" y="-3.05002" width="65.1" height="25.1" filterUnits="userSpaceOnUse" color-interpolation-filters="sRGB">
<feFlood flood-opacity="0" result="BackgroundImageFix"/>
<feGaussianBlur in="BackgroundImage" stdDeviation="2"/>
<feComposite in2="SourceAlpha" operator="in" result="effect1_backgroundBlur"/>
<feBlend mode="normal" in="SourceGraphic" in2="effect1_backgroundBlur" result="shape"/>
</filter>
</defs>
</svg>
